<svg id="Calque_2" data-name="Calque 2" xmlns="http://www.w3.org/2000/svg" viewBox="0 0 223.29 45.95"><defs><style>.cls-1,.cls-3{fill:#aaa;}.cls-2,.cls-4{fill:#fff;}.cls-3{font-size:33.55px;font-family:BodoniSvtyTwoOSITCTT-Book, Bodoni 72 Oldstyle;letter-spacing:0.02em;}.cls-4{letter-spacing:0.02em;}</style></defs><title>logo1</title><path class="cls-1" d="M33.63,5.72c0,.27-.36.4-1.09.4a12.72,12.72,0,0,0-2.44.13c-.31.08-.49.23-.54.44a13.86,13.86,0,0,0-.08,2V30.22c0,2.39,0,4.35,0,5.87A28.17,28.17,0,0,1,29,40.92,8.3,8.3,0,0,1,26,45.57a8.12,8.12,0,0,1-5.17,2,4.9,4.9,0,0,1-3.26-1.06,3.52,3.52,0,0,1-1.24-2.78c0-2,1-3,2.91-3a2.87,2.87,0,0,1,2,.73,2.4,2.4,0,0,1,.8,1.87,2.62,2.62,0,0,1-.67,1.76,1.6,1.6,0,0,0-.47.88c0,.31.26.47.78.47,1.1,0,1.88-.68,2.33-2A30.5,30.5,0,0,0,24.35,38V8.4c0-1.11-.33-1.8-1-2.08a11.58,11.58,0,0,0-2.49-.15,3.77,3.77,0,0,1-1.17-.11.33.33,0,0,1-.23-.31c0-.34.27-.52.83-.52H32C33.08,5.23,33.63,5.4,33.63,5.72Z" transform="translate(-16.3 -1.57)"/><path class="cls-2" d="M29.51,33.25l0,1.81c.12,2.62-1.29,4.72-3.79,6.45C29.92,40,31.73,34.67,29.51,33.25Z" transform="translate(-16.3 -1.57)"/><path class="cls-2" d="M31.42,7.17c.11,0,1-.25.67-1l-1-.11c-.53-.15-1.22-1.1-1.65-1.7a4.45,4.45,0,0,0-3.05-2.67,4.49,4.49,0,0,0-3,.51c-.5.2-.6-.26-1.18,0s0,.29-.88,1-.77.94-.62,1.23,1.16.27,3.24.22c1.79,0,2,.42,2.88.48.46,1,.22,1,.18,1.78,0,.58.36,1.07.11,1.08s-.4-.2-.46-.43-.08-2.15-.36-2.09c-.47.09-.22.58-.14,1.08s.08.53-.05.59-.16-.22-.44-.66-1-.92-1.13-.73.36.65.77,1.06.08.53-.21.45c-.6-.17-1.17-.73-1.13-.38a1.05,1.05,0,0,0,.88.77c.63,0,.12.45-.19.66s-.5.27-.44.71.35-.12.81-.49.59-.36.84-.08,1.2,2,1.79,1.88a.35.35,0,0,0,.24-.13,1.28,1.28,0,0,0,.24-.31,4.23,4.23,0,0,0,.41-1.28,3.21,3.21,0,0,1-.23,1.48,1.26,1.26,0,0,1-.46.57,2.74,2.74,0,0,1-.14.59,16.54,16.54,0,0,1-1.83,3.92c-.18.29-.22-1.29-.2-1.77s-.3-1-.72-.81-.18.44-.61.69V12.7a1.86,1.86,0,0,0-.44,1.2c0,.3.14.56.4.4s.55-.33.59,0a19.26,19.26,0,0,1-.64,3.24A14.86,14.86,0,0,0,22.51,24c-.13,3.28.94,5.91,1.83,6.77V29.46c0-.92,0-1.88,0-2.82,0-.21-.19.2-.21-.19,0-.62.23-.81.23-1v-.11c0-.25-.2-.27-.21-.61s.28-.53.3-.73a6.14,6.14,0,0,1,1.2-3.52L27,19.21s-1,1.6-1,1.6c.45.37,1.14,1,.85,1.45a9.61,9.61,0,0,1-1.45,1.27h0s-1,.54-1.14,1a.71.71,0,0,0,.15.71c.15-.62.4-.79.4-.42s-.73.89-.6,1.78c.06.47.71-1.23,1-1.42s.38.46.2,1.05-.23,1,0,1.07.6-1.43.53-2,.13-.7.42-.31.23,1.45.58,1.21-.26-1.63-.29-1.92.19-.43.38-.61c.63-.46,1.44-1,1.51-1.45a7.05,7.05,0,0,0-.92-2.67,1.13,1.13,0,0,1,.36-1.43,9.08,9.08,0,0,0,3.25-4.92,9,9,0,0,0,.09-5.4c0-.16-.11-.21-.15-.4S31.34,7.19,31.42,7.17Z" transform="translate(-16.3 -1.57)"/><text class="cls-3" transform="translate(20.03 32.65)">am<tspan class="cls-4" x="38.18" y="0">thedesigner.</tspan></text></svg>